<mxfile host="app.diagrams.net" agent="Mozilla/5.0 (Windows NT 10.0; Win64; x64) AppleWebKit/537.36 (KHTML, like Gecko) Chrome/128.0.0.0 Safari/537.36" version="24.7.17">
  <diagram id="C5RBs43oDa-KdzZeNtuy" name="Page-1">
    <mxGraphModel dx="2901" dy="1104" grid="1" gridSize="10" guides="1" tooltips="1" connect="1" arrows="1" fold="1" page="1" pageScale="1" pageWidth="827" pageHeight="1169" math="0" shadow="0">
      <root>
        <mxCell id="WIyWlLk6GJQsqaUBKTNV-0" />
        <mxCell id="WIyWlLk6GJQsqaUBKTNV-1" parent="WIyWlLk6GJQsqaUBKTNV-0" />
        <mxCell id="SndQBwJRX5r1R-heTLwh-0" value="Account" style="swimlane;fontStyle=1;align=center;verticalAlign=top;childLayout=stackLayout;horizontal=1;startSize=26;horizontalStack=0;resizeParent=1;resizeParentMax=0;resizeLast=0;collapsible=1;marginBottom=0;whiteSpace=wrap;html=1;" parent="WIyWlLk6GJQsqaUBKTNV-1" vertex="1">
          <mxGeometry x="-70" y="520" width="310" height="190" as="geometry" />
        </mxCell>
        <mxCell id="SndQBwJRX5r1R-heTLwh-1" value="- username : String&lt;div&gt;- password : String&lt;/div&gt;&lt;div&gt;- email : String&lt;/div&gt;" style="text;strokeColor=none;fillColor=none;align=left;verticalAlign=top;spacingLeft=4;spacingRight=4;overflow=hidden;rotatable=0;points=[[0,0.5],[1,0.5]];portConstraint=eastwest;whiteSpace=wrap;html=1;" parent="SndQBwJRX5r1R-heTLwh-0" vertex="1">
          <mxGeometry y="26" width="310" height="54" as="geometry" />
        </mxCell>
        <mxCell id="SndQBwJRX5r1R-heTLwh-2" value="" style="line;strokeWidth=1;fillColor=none;align=left;verticalAlign=middle;spacingTop=-1;spacingLeft=3;spacingRight=3;rotatable=0;labelPosition=right;points=[];portConstraint=eastwest;strokeColor=inherit;" parent="SndQBwJRX5r1R-heTLwh-0" vertex="1">
          <mxGeometry y="80" width="310" height="8" as="geometry" />
        </mxCell>
        <mxCell id="SndQBwJRX5r1R-heTLwh-3" value="+ login(password : String, username : String) : bool&lt;div&gt;+ getUsername() : String&lt;br&gt;&lt;/div&gt;&lt;div&gt;+ getEmail() : String&lt;/div&gt;&lt;div&gt;+ setUsername(username : String)&lt;/div&gt;&lt;div&gt;+ setEmail(email : String)&lt;/div&gt;&lt;div&gt;+ setPassword(password : String)&lt;/div&gt;" style="text;strokeColor=none;fillColor=none;align=left;verticalAlign=top;spacingLeft=4;spacingRight=4;overflow=hidden;rotatable=0;points=[[0,0.5],[1,0.5]];portConstraint=eastwest;whiteSpace=wrap;html=1;" parent="SndQBwJRX5r1R-heTLwh-0" vertex="1">
          <mxGeometry y="88" width="310" height="102" as="geometry" />
        </mxCell>
        <mxCell id="SndQBwJRX5r1R-heTLwh-4" value="CustomerAccount" style="swimlane;fontStyle=1;align=center;verticalAlign=top;childLayout=stackLayout;horizontal=1;startSize=26;horizontalStack=0;resizeParent=1;resizeParentMax=0;resizeLast=0;collapsible=1;marginBottom=0;whiteSpace=wrap;html=1;" parent="WIyWlLk6GJQsqaUBKTNV-1" vertex="1">
          <mxGeometry x="311" y="870" width="220" height="180" as="geometry" />
        </mxCell>
        <mxCell id="SndQBwJRX5r1R-heTLwh-5" value="- rewardPoints : int&lt;div&gt;- recipts : LinkedList&amp;lt;Receipt&amp;gt;&lt;/div&gt;" style="text;strokeColor=none;fillColor=none;align=left;verticalAlign=top;spacingLeft=4;spacingRight=4;overflow=hidden;rotatable=0;points=[[0,0.5],[1,0.5]];portConstraint=eastwest;whiteSpace=wrap;html=1;" parent="SndQBwJRX5r1R-heTLwh-4" vertex="1">
          <mxGeometry y="26" width="220" height="34" as="geometry" />
        </mxCell>
        <mxCell id="SndQBwJRX5r1R-heTLwh-6" value="" style="line;strokeWidth=1;fillColor=none;align=left;verticalAlign=middle;spacingTop=-1;spacingLeft=3;spacingRight=3;rotatable=0;labelPosition=right;points=[];portConstraint=eastwest;strokeColor=inherit;" parent="SndQBwJRX5r1R-heTLwh-4" vertex="1">
          <mxGeometry y="60" width="220" height="8" as="geometry" />
        </mxCell>
        <mxCell id="SndQBwJRX5r1R-heTLwh-7" value="+ addReceipt(receipt : Receipt)&lt;div&gt;+ getReceipts() : LinkedList&amp;lt;Receipt&amp;gt;&lt;/div&gt;&lt;div&gt;+ removeReceipt(index : int)&lt;/div&gt;&lt;div&gt;+ addRewardPoints(points : int)&lt;/div&gt;&lt;div&gt;+ removeRewardPoints(points : int)&lt;/div&gt;&lt;div&gt;+ getRewardPoints() : int&lt;/div&gt;&lt;div&gt;+ setRewardPoints(points : int)&lt;/div&gt;" style="text;strokeColor=none;fillColor=none;align=left;verticalAlign=top;spacingLeft=4;spacingRight=4;overflow=hidden;rotatable=0;points=[[0,0.5],[1,0.5]];portConstraint=eastwest;whiteSpace=wrap;html=1;" parent="SndQBwJRX5r1R-heTLwh-4" vertex="1">
          <mxGeometry y="68" width="220" height="112" as="geometry" />
        </mxCell>
        <mxCell id="SndQBwJRX5r1R-heTLwh-24" value="Showing" style="swimlane;fontStyle=1;align=center;verticalAlign=top;childLayout=stackLayout;horizontal=1;startSize=26;horizontalStack=0;resizeParent=1;resizeParentMax=0;resizeLast=0;collapsible=1;marginBottom=0;whiteSpace=wrap;html=1;" parent="WIyWlLk6GJQsqaUBKTNV-1" vertex="1">
          <mxGeometry x="-510" y="220" width="290" height="370" as="geometry" />
        </mxCell>
        <mxCell id="SndQBwJRX5r1R-heTLwh-25" value="- movie : Movie&lt;div&gt;- date : String&lt;/div&gt;&lt;div&gt;- maxSeats : int&lt;/div&gt;&lt;div&gt;- availableSeats : int&lt;/div&gt;&lt;div&gt;- location : String&lt;/div&gt;&lt;div&gt;- theaterNumber : int&lt;/div&gt;&lt;div&gt;- price: double&lt;/div&gt;" style="text;strokeColor=none;fillColor=none;align=left;verticalAlign=top;spacingLeft=4;spacingRight=4;overflow=hidden;rotatable=0;points=[[0,0.5],[1,0.5]];portConstraint=eastwest;whiteSpace=wrap;html=1;" parent="SndQBwJRX5r1R-heTLwh-24" vertex="1">
          <mxGeometry y="26" width="290" height="104" as="geometry" />
        </mxCell>
        <mxCell id="SndQBwJRX5r1R-heTLwh-26" value="" style="line;strokeWidth=1;fillColor=none;align=left;verticalAlign=middle;spacingTop=-1;spacingLeft=3;spacingRight=3;rotatable=0;labelPosition=right;points=[];portConstraint=eastwest;strokeColor=inherit;" parent="SndQBwJRX5r1R-heTLwh-24" vertex="1">
          <mxGeometry y="130" width="290" height="8" as="geometry" />
        </mxCell>
        <mxCell id="SndQBwJRX5r1R-heTLwh-27" value="&lt;div&gt;+getMovie() : Movie&lt;/div&gt;&lt;div&gt;+getDate() :&amp;nbsp;&lt;span style=&quot;background-color: initial;&quot;&gt;String&lt;/span&gt;&lt;/div&gt;&lt;div&gt;+getMaxSeates() : int&lt;/div&gt;&lt;div&gt;+getAvailableSeats() : int&lt;/div&gt;&lt;div&gt;+getLocation() : String&lt;/div&gt;&lt;div&gt;+getTheaterNumber() : int&lt;/div&gt;&lt;div&gt;+getPrice() : double&lt;/div&gt;&lt;div&gt;+setMovie(movie : Movie)&lt;/div&gt;&lt;div&gt;+setDate(date : String)&lt;/div&gt;&lt;div&gt;+setMaxSeats(maxSeats : int)&lt;/div&gt;&lt;div&gt;+setAvailableSeats(availableSeats : int)&lt;/div&gt;&lt;div&gt;+setLocation(location : String)&lt;/div&gt;&lt;div&gt;+setTheaterNumber(theaterNumber : int)&lt;/div&gt;&lt;div&gt;+setPrice(price : double)&lt;/div&gt;&lt;div&gt;+purchaseTicket(numberTickets : int) : Receipt&lt;/div&gt;&lt;div&gt;&lt;br&gt;&lt;/div&gt;" style="text;strokeColor=none;fillColor=none;align=left;verticalAlign=top;spacingLeft=4;spacingRight=4;overflow=hidden;rotatable=0;points=[[0,0.5],[1,0.5]];portConstraint=eastwest;whiteSpace=wrap;html=1;" parent="SndQBwJRX5r1R-heTLwh-24" vertex="1">
          <mxGeometry y="138" width="290" height="232" as="geometry" />
        </mxCell>
        <mxCell id="SndQBwJRX5r1R-heTLwh-28" value="Movie" style="swimlane;fontStyle=1;align=center;verticalAlign=top;childLayout=stackLayout;horizontal=1;startSize=26;horizontalStack=0;resizeParent=1;resizeParentMax=0;resizeLast=0;collapsible=1;marginBottom=0;whiteSpace=wrap;html=1;" parent="WIyWlLk6GJQsqaUBKTNV-1" vertex="1">
          <mxGeometry x="-780" y="220" width="200" height="260" as="geometry" />
        </mxCell>
        <mxCell id="SndQBwJRX5r1R-heTLwh-29" value="- name : String&lt;div&gt;- duration : int&lt;/div&gt;&lt;div&gt;- thumbnail: String&lt;/div&gt;&lt;div&gt;- description : String&lt;/div&gt;&lt;div&gt;- genre : String&lt;/div&gt;&lt;div&gt;&lt;br&gt;&lt;/div&gt;&lt;div&gt;&lt;br&gt;&lt;/div&gt;" style="text;strokeColor=none;fillColor=none;align=left;verticalAlign=top;spacingLeft=4;spacingRight=4;overflow=hidden;rotatable=0;points=[[0,0.5],[1,0.5]];portConstraint=eastwest;whiteSpace=wrap;html=1;" parent="SndQBwJRX5r1R-heTLwh-28" vertex="1">
          <mxGeometry y="26" width="200" height="84" as="geometry" />
        </mxCell>
        <mxCell id="SndQBwJRX5r1R-heTLwh-30" value="" style="line;strokeWidth=1;fillColor=none;align=left;verticalAlign=middle;spacingTop=-1;spacingLeft=3;spacingRight=3;rotatable=0;labelPosition=right;points=[];portConstraint=eastwest;strokeColor=inherit;" parent="SndQBwJRX5r1R-heTLwh-28" vertex="1">
          <mxGeometry y="110" width="200" height="8" as="geometry" />
        </mxCell>
        <mxCell id="SndQBwJRX5r1R-heTLwh-31" value="+ getName() : String&lt;div&gt;+ getDuration() : int&lt;/div&gt;&lt;div&gt;+ getThumbnail() : String&lt;/div&gt;&lt;div&gt;+ getDescription() : String&lt;/div&gt;&lt;div&gt;+ getGenre() : String&lt;/div&gt;&lt;div&gt;+ setName(name : String)&lt;/div&gt;&lt;div&gt;+ setDuration(duration : int)&lt;/div&gt;&lt;div&gt;+ setThumbnail(thumbnail : String)&lt;/div&gt;&lt;div&gt;+ setGenre(genre : String)&lt;/div&gt;" style="text;strokeColor=none;fillColor=none;align=left;verticalAlign=top;spacingLeft=4;spacingRight=4;overflow=hidden;rotatable=0;points=[[0,0.5],[1,0.5]];portConstraint=eastwest;whiteSpace=wrap;html=1;" parent="SndQBwJRX5r1R-heTLwh-28" vertex="1">
          <mxGeometry y="118" width="200" height="142" as="geometry" />
        </mxCell>
        <mxCell id="SndQBwJRX5r1R-heTLwh-32" style="edgeStyle=orthogonalEdgeStyle;rounded=0;orthogonalLoop=1;jettySize=auto;html=1;entryX=0;entryY=0.5;entryDx=0;entryDy=0;endArrow=diamond;endFill=0;" parent="WIyWlLk6GJQsqaUBKTNV-1" source="SndQBwJRX5r1R-heTLwh-29" target="SndQBwJRX5r1R-heTLwh-25" edge="1">
          <mxGeometry relative="1" as="geometry">
            <Array as="points">
              <mxPoint x="-545" y="280" />
              <mxPoint x="-545" y="298" />
            </Array>
          </mxGeometry>
        </mxCell>
        <mxCell id="acjV5M_IoJKQam2fpVWT-0" value="Receipt" style="swimlane;fontStyle=1;align=center;verticalAlign=top;childLayout=stackLayout;horizontal=1;startSize=26;horizontalStack=0;resizeParent=1;resizeParentMax=0;resizeLast=0;collapsible=1;marginBottom=0;whiteSpace=wrap;html=1;" vertex="1" parent="WIyWlLk6GJQsqaUBKTNV-1">
          <mxGeometry x="-780" y="560" width="210" height="160" as="geometry" />
        </mxCell>
        <mxCell id="acjV5M_IoJKQam2fpVWT-1" value="- showing : Showing&lt;div&gt;- numberTickets : int&lt;/div&gt;" style="text;strokeColor=none;fillColor=none;align=left;verticalAlign=top;spacingLeft=4;spacingRight=4;overflow=hidden;rotatable=0;points=[[0,0.5],[1,0.5]];portConstraint=eastwest;whiteSpace=wrap;html=1;" vertex="1" parent="acjV5M_IoJKQam2fpVWT-0">
          <mxGeometry y="26" width="210" height="34" as="geometry" />
        </mxCell>
        <mxCell id="acjV5M_IoJKQam2fpVWT-2" value="" style="line;strokeWidth=1;fillColor=none;align=left;verticalAlign=middle;spacingTop=-1;spacingLeft=3;spacingRight=3;rotatable=0;labelPosition=right;points=[];portConstraint=eastwest;strokeColor=inherit;" vertex="1" parent="acjV5M_IoJKQam2fpVWT-0">
          <mxGeometry y="60" width="210" height="8" as="geometry" />
        </mxCell>
        <mxCell id="acjV5M_IoJKQam2fpVWT-3" value="+ getShowing() : Showing&lt;div&gt;+ getNumberTickets() : int&lt;/div&gt;&lt;div&gt;+ setShowing(showing : Showing)&lt;/div&gt;&lt;div&gt;+ setNumberTickets(numTickets: int)&lt;/div&gt;&lt;div&gt;+ calculatePrice() : double&lt;/div&gt;" style="text;strokeColor=none;fillColor=none;align=left;verticalAlign=top;spacingLeft=4;spacingRight=4;overflow=hidden;rotatable=0;points=[[0,0.5],[1,0.5]];portConstraint=eastwest;whiteSpace=wrap;html=1;" vertex="1" parent="acjV5M_IoJKQam2fpVWT-0">
          <mxGeometry y="68" width="210" height="92" as="geometry" />
        </mxCell>
        <mxCell id="acjV5M_IoJKQam2fpVWT-22" value="ManagmentAccount" style="swimlane;fontStyle=1;align=center;verticalAlign=top;childLayout=stackLayout;horizontal=1;startSize=26;horizontalStack=0;resizeParent=1;resizeParentMax=0;resizeLast=0;collapsible=1;marginBottom=0;whiteSpace=wrap;html=1;" vertex="1" parent="WIyWlLk6GJQsqaUBKTNV-1">
          <mxGeometry x="-600" y="870" width="400" height="170" as="geometry" />
        </mxCell>
        <mxCell id="acjV5M_IoJKQam2fpVWT-23" value="+ &lt;u&gt;moviesFile : String&lt;/u&gt;&lt;div&gt;+ &lt;u&gt;showingsFile : String&lt;/u&gt;&lt;/div&gt;" style="text;strokeColor=none;fillColor=none;align=left;verticalAlign=top;spacingLeft=4;spacingRight=4;overflow=hidden;rotatable=0;points=[[0,0.5],[1,0.5]];portConstraint=eastwest;whiteSpace=wrap;html=1;" vertex="1" parent="acjV5M_IoJKQam2fpVWT-22">
          <mxGeometry y="26" width="400" height="44" as="geometry" />
        </mxCell>
        <mxCell id="acjV5M_IoJKQam2fpVWT-24" value="" style="line;strokeWidth=1;fillColor=none;align=left;verticalAlign=middle;spacingTop=-1;spacingLeft=3;spacingRight=3;rotatable=0;labelPosition=right;points=[];portConstraint=eastwest;strokeColor=inherit;" vertex="1" parent="acjV5M_IoJKQam2fpVWT-22">
          <mxGeometry y="70" width="400" height="8" as="geometry" />
        </mxCell>
        <mxCell id="acjV5M_IoJKQam2fpVWT-25" value="+ addMovie(movie : Movie)&lt;div&gt;+ removeMovie(movie : Movie)&lt;/div&gt;&lt;div&gt;+ modifyMovie(movieModified : Movie, movieOriginal : Movie)&lt;/div&gt;&lt;div&gt;+ addShowing(showing : Showing)&lt;/div&gt;&lt;div&gt;+ removeShowing(showing : Showing)&lt;/div&gt;&lt;div&gt;+ modifyShowing(showingModified: Showing, showingOriginal : Showing)&lt;/div&gt;" style="text;strokeColor=none;fillColor=none;align=left;verticalAlign=top;spacingLeft=4;spacingRight=4;overflow=hidden;rotatable=0;points=[[0,0.5],[1,0.5]];portConstraint=eastwest;whiteSpace=wrap;html=1;" vertex="1" parent="acjV5M_IoJKQam2fpVWT-22">
          <mxGeometry y="78" width="400" height="92" as="geometry" />
        </mxCell>
        <mxCell id="acjV5M_IoJKQam2fpVWT-26" style="edgeStyle=orthogonalEdgeStyle;rounded=0;orthogonalLoop=1;jettySize=auto;html=1;entryX=1;entryY=0.5;entryDx=0;entryDy=0;endArrow=diamond;endFill=0;" edge="1" parent="WIyWlLk6GJQsqaUBKTNV-1" source="SndQBwJRX5r1R-heTLwh-27" target="acjV5M_IoJKQam2fpVWT-1">
          <mxGeometry relative="1" as="geometry" />
        </mxCell>
        <mxCell id="acjV5M_IoJKQam2fpVWT-29" value="CustomerServiceAccount" style="swimlane;fontStyle=1;align=center;verticalAlign=top;childLayout=stackLayout;horizontal=1;startSize=26;horizontalStack=0;resizeParent=1;resizeParentMax=0;resizeLast=0;collapsible=1;marginBottom=0;whiteSpace=wrap;html=1;" vertex="1" parent="WIyWlLk6GJQsqaUBKTNV-1">
          <mxGeometry x="-130" y="870" width="380" height="150" as="geometry" />
        </mxCell>
        <mxCell id="acjV5M_IoJKQam2fpVWT-30" value="+ &lt;u&gt;accountsFile : String&lt;/u&gt;" style="text;strokeColor=none;fillColor=none;align=left;verticalAlign=top;spacingLeft=4;spacingRight=4;overflow=hidden;rotatable=0;points=[[0,0.5],[1,0.5]];portConstraint=eastwest;whiteSpace=wrap;html=1;" vertex="1" parent="acjV5M_IoJKQam2fpVWT-29">
          <mxGeometry y="26" width="380" height="26" as="geometry" />
        </mxCell>
        <mxCell id="acjV5M_IoJKQam2fpVWT-31" value="" style="line;strokeWidth=1;fillColor=none;align=left;verticalAlign=middle;spacingTop=-1;spacingLeft=3;spacingRight=3;rotatable=0;labelPosition=right;points=[];portConstraint=eastwest;strokeColor=inherit;" vertex="1" parent="acjV5M_IoJKQam2fpVWT-29">
          <mxGeometry y="52" width="380" height="8" as="geometry" />
        </mxCell>
        <mxCell id="acjV5M_IoJKQam2fpVWT-32" value="+ modifyUsername(customer : CustomerAccount, username : String)&lt;div&gt;+ modifyEmail(customer : CustomerAccount, email : String)&lt;/div&gt;&lt;div&gt;+ addPoints(customer : CustomerAccount, point : int)&lt;/div&gt;&lt;div&gt;+ refundReceipt(customer : CustomerAccount, receipt : Receipt)&lt;/div&gt;&lt;div&gt;+ deleteAccount(customer : CustomerAccount)&lt;/div&gt;" style="text;strokeColor=none;fillColor=none;align=left;verticalAlign=top;spacingLeft=4;spacingRight=4;overflow=hidden;rotatable=0;points=[[0,0.5],[1,0.5]];portConstraint=eastwest;whiteSpace=wrap;html=1;" vertex="1" parent="acjV5M_IoJKQam2fpVWT-29">
          <mxGeometry y="60" width="380" height="90" as="geometry" />
        </mxCell>
        <mxCell id="acjV5M_IoJKQam2fpVWT-33" style="edgeStyle=orthogonalEdgeStyle;rounded=0;orthogonalLoop=1;jettySize=auto;html=1;entryX=0.722;entryY=0.993;entryDx=0;entryDy=0;entryPerimeter=0;" edge="1" parent="WIyWlLk6GJQsqaUBKTNV-1" source="SndQBwJRX5r1R-heTLwh-4" target="SndQBwJRX5r1R-heTLwh-3">
          <mxGeometry relative="1" as="geometry" />
        </mxCell>
        <mxCell id="acjV5M_IoJKQam2fpVWT-34" style="edgeStyle=orthogonalEdgeStyle;rounded=0;orthogonalLoop=1;jettySize=auto;html=1;entryX=0.481;entryY=1;entryDx=0;entryDy=0;entryPerimeter=0;" edge="1" parent="WIyWlLk6GJQsqaUBKTNV-1" source="acjV5M_IoJKQam2fpVWT-29" target="SndQBwJRX5r1R-heTLwh-3">
          <mxGeometry relative="1" as="geometry" />
        </mxCell>
        <mxCell id="acjV5M_IoJKQam2fpVWT-35" style="edgeStyle=orthogonalEdgeStyle;rounded=0;orthogonalLoop=1;jettySize=auto;html=1;entryX=0.306;entryY=1.007;entryDx=0;entryDy=0;entryPerimeter=0;" edge="1" parent="WIyWlLk6GJQsqaUBKTNV-1" source="acjV5M_IoJKQam2fpVWT-22" target="SndQBwJRX5r1R-heTLwh-3">
          <mxGeometry relative="1" as="geometry" />
        </mxCell>
        <mxCell id="acjV5M_IoJKQam2fpVWT-36" style="edgeStyle=orthogonalEdgeStyle;rounded=0;orthogonalLoop=1;jettySize=auto;html=1;entryX=0.545;entryY=0.997;entryDx=0;entryDy=0;entryPerimeter=0;endArrow=diamond;endFill=0;" edge="1" parent="WIyWlLk6GJQsqaUBKTNV-1" source="acjV5M_IoJKQam2fpVWT-0" target="SndQBwJRX5r1R-heTLwh-7">
          <mxGeometry relative="1" as="geometry">
            <Array as="points">
              <mxPoint x="-675" y="1130" />
              <mxPoint x="431" y="1130" />
            </Array>
          </mxGeometry>
        </mxCell>
      </root>
    </mxGraphModel>
  </diagram>
</mxfile>
